<?xml version="1.0" encoding="UTF-8"?>
<svg width="104px" height="104px" viewBox="0 0 104 104" version="1.1" xmlns="http://www.w3.org/2000/svg" xmlns:xlink="http://www.w3.org/1999/xlink">
    <!-- Generator: Sketch 48.1 (47250) - http://www.bohemiancoding.com/sketch -->
    <title>LOGO</title>
    <desc>Created with Sketch.</desc>
    <defs>
        <rect id="path-1" x="0" y="0" width="81" height="59"></rect>
    </defs>
    <g id="Desktop-HD" stroke="none" stroke-width="1" fill="none" fill-rule="evenodd" transform="translate(-157.000000, -55.000000)">
        <g id="HEADER" transform="translate(157.000000, 55.000000)">
            <g id="LOGO">
                <g id="NL-NG" transform="translate(17.000000, 30.000000)">
                    <mask id="mask-2" fill="white">
                        <use xlink:href="#path-1"></use>
                    </mask>
                    <g id="Mask"></g>
                    <path d="M0.456,0.016 L10.632,0.016 L25.08,23.632 L25.176,23.632 L25.176,0.016 L32.664,0.016 L32.664,34 L22.872,34 L8.04,9.808 L7.944,9.808 L7.944,34 L0.456,34 L0.456,0.016 Z M39.864,0.016 L47.352,0.016 L47.352,27.088 L61.224,27.088 L61.224,34 L39.864,34 L39.864,0.016 Z M0.456,40.016 L10.632,40.016 L25.08,63.632 L25.176,63.632 L25.176,40.016 L32.664,40.016 L32.664,74 L22.872,74 L8.04,49.808 L7.944,49.808 L7.944,74 L0.456,74 L0.456,40.016 Z M70.344,71.6 C68.135989,72.7520058 65.832012,73.5839974 63.432,74.096 C61.031988,74.6080026 58.5840125,74.864 56.088,74.864 C53.4319867,74.864 50.9840112,74.4480042 48.744,73.616 C46.5039888,72.7839958 44.5680082,71.5920078 42.936,70.04 C41.3039918,68.4879922 40.0320046,66.608011 39.12,64.4 C38.2079954,62.191989 37.752,59.7280136 37.752,57.008 C37.752,54.2879864 38.2079954,51.824011 39.12,49.616 C40.0320046,47.407989 41.3039918,45.5280078 42.936,43.976 C44.5680082,42.4239922 46.5039888,41.2320042 48.744,40.4 C50.9840112,39.5679958 53.4319867,39.152 56.088,39.152 C58.8080136,39.152 61.3119886,39.4799967 63.6,40.136 C65.8880114,40.7920033 67.8959914,41.919992 69.624,43.52 L64.344,49.28 C63.3199949,48.2239947 62.1680064,47.4240027 60.888,46.88 C59.6079936,46.3359973 58.0080096,46.064 56.088,46.064 C54.487992,46.064 53.0400065,46.3359973 51.744,46.88 C50.4479935,47.4240027 49.3360046,48.1839951 48.408,49.16 C47.4799954,50.1360049 46.7680025,51.2959933 46.272,52.64 C45.7759975,53.9840067 45.528,55.4399922 45.528,57.008 C45.528,58.608008 45.7759975,60.0719934 46.272,61.4 C46.7680025,62.7280066 47.4799954,63.8799951 48.408,64.856 C49.3360046,65.8320049 50.4479935,66.5919973 51.744,67.136 C53.0400065,67.6800027 54.487992,67.952 56.088,67.952 C57.7200082,67.952 59.1279941,67.7680018 60.312,67.4 C61.4960059,67.0319982 62.4399965,66.6560019 63.144,66.272 L63.144,60.752 L57.048,60.752 L57.048,53.84 L70.344,53.84 L70.344,71.6 Z" fill="#565BE7" mask="url(#mask-2)"></path>
                </g>
                <rect id="Rectangle-11" stroke="#565BE7" stroke-width="8" x="4" y="4" width="96" height="96"></rect>
            </g>
        </g>
    </g>
</svg>